<?xml version="1.0" standalone="no"?>
<!DOCTYPE svg PUBLIC "-//W3C//DTD SVG 20010904//EN"
 "http://www.w3.org/TR/2001/REC-SVG-20010904/DTD/svg10.dtd">
<svg version="1.0" xmlns="http://www.w3.org/2000/svg"
 width="56.000000pt" height="63.000000pt" viewBox="0 0 56.000000 63.000000"
 preserveAspectRatio="xMidYMid meet">

<g transform="translate(0.000000,63.000000) scale(0.100000,-0.100000)"
fill="#000000" stroke="none">
<path d="M278 448 l5 -133 -22 19 c-11 11 -21 29 -21 41 0 15 -13 27 -47 44
l-48 23 38 -39 c20 -21 37 -42 37 -45 0 -4 -45 -14 -100 -24 -55 -10 -100 -21
-100 -25 0 -3 57 -4 128 -1 l127 5 -19 -22 c-11 -11 -29 -21 -41 -21 -15 0
-27 -12 -43 -47 l-22 -48 31 38 c33 40 58 48 58 20 1 -28 35 -173 41 -173 3 0
3 54 1 120 -2 68 1 120 6 120 16 0 33 -23 33 -46 0 -15 13 -30 43 -47 23 -14
44 -24 46 -22 2 2 -13 18 -33 35 -37 33 -48 57 -21 47 8 -4 17 -2 19 2 3 4 39
14 81 21 42 7 78 16 80 20 2 4 -53 5 -123 2 l-127 -5 19 22 c11 11 29 21 41
21 15 0 27 12 43 45 12 25 19 45 17 45 -3 0 -19 -16 -36 -35 -17 -19 -34 -35
-39 -35 -4 0 -17 46 -29 102 -12 56 -23 103 -25 105 -1 2 -1 -57 2 -129z"/>
</g>
</svg>
